<?xml version="1.0" encoding="utf-8"?>
<!-- Generator: Adobe Illustrator 19.1.1, SVG Export Plug-In . SVG Version: 6.00 Build 0)  -->
<svg version="1.1" id="Layer_1" xmlns="http://www.w3.org/2000/svg" xmlns:xlink="http://www.w3.org/1999/xlink" x="0px" y="0px"
	 viewBox="-5 -5 42 42" enable-background="new 0 0 32 32" xml:space="preserve">
<path d="M16,19.1"/>
<path d="M12.9,16"/>
<path d="M16,12.9"/>
<path d="M19.1,16"/>
<g>
	<path fill="#512BD4" d="M7,28c0,1.1,0.9,2,2,2h14c1.1,0,2-0.9,2-2V8H7V28z M20,12c0-0.6,0.4-1,1-1s1,0.4,1,1v14c0,0.6-0.4,1-1,1s-1-0.4-1-1V12z
		 M15,12c0-0.6,0.4-1,1-1s1,0.4,1,1v14c0,0.6-0.4,1-1,1s-1-0.4-1-1V12z M10,12c0-0.5,0.5-1,1-1s1,0.5,1,1v14c0,0.5-0.5,1-1,1
		s-1-0.5-1-1V12z"/>
	<path fill="#512BD4" d="M26,5h-7V4c0-1.1-0.9-2-2-2h-2c-1.1,0-2,0.9-2,2v1H6C5.4,5,5,5.4,5,6v1h22V6C27,5.4,26.6,5,26,5z M18,5h-4V4
		c0-0.6,0.4-1,1-1h2c0.6,0,1,0.4,1,1V5z"/>
</g>
</svg>
