<svg width="32" height="32" viewBox="0 0 32 32" fill="none" xmlns="http://www.w3.org/2000/svg">
<path d="M8 0C6.9 0 6 0.9 6 2V30C6 31.1 6.9 32 8 32H28C29.1 32 30 31.1 30 30V8L22 0H8Z" fill="#ECECE7"/>
<path d="M5.80223 15L4.14258 16.6646H5.80223V15Z" fill="#249F39"/>
<path d="M29.9824 15L31.6427 16.6646H29.9824V15Z" fill="#249F39"/>
<path d="M31.1726 27.0944H4.61446C4.4515 27.0944 4.2952 27.0297 4.17997 26.9144C4.06474 26.7992 4 26.6429 4 26.48V17.0578C4 16.8949 4.06474 16.7386 4.17997 16.6234C4.2952 16.5081 4.4515 16.4434 4.61446 16.4434H31.1726C31.3356 16.4434 31.4919 16.5081 31.6071 16.6234C31.7223 16.7386 31.7871 16.8949 31.7871 17.0578V26.4793C31.7871 26.5601 31.7713 26.6401 31.7405 26.7147C31.7096 26.7893 31.6644 26.8571 31.6073 26.9142C31.5502 26.9713 31.4825 27.0167 31.4079 27.0476C31.3333 27.0785 31.2533 27.0944 31.1726 27.0944Z" fill="#46BB25"/>
<path d="M24 8H30L22 0V6C22 7.1 22.9 8 24 8Z" fill="#B0B7BD"/>
<path d="M30 14L24 8H30V14Z" fill="#DEDED8"/>
<path d="M9.02056 20.387L10.4116 18.644C10.8276 18.1 11.6356 18.795 11.1796 19.315C10.7006 19.883 10.1966 20.499 9.71656 21.13L11.3476 23.161C11.7876 23.761 10.9086 24.336 10.4766 23.744L9.00456 21.857L7.55756 23.785C7.14956 24.368 6.24556 23.713 6.70156 23.169L8.30856 21.13C7.80456 20.498 7.31656 19.883 6.82956 19.315C6.32656 18.715 7.26156 18.1 7.62956 18.661L9.02056 20.387Z" fill="white"/>
<path d="M24.4444 20.387L25.8354 18.644C26.2514 18.1 27.0594 18.795 26.6034 19.315C26.1244 19.883 25.6204 20.499 25.1404 21.13L26.7714 23.161C27.2114 23.761 26.3324 24.336 25.9004 23.744L24.4284 21.857L22.9814 23.785C22.5734 24.368 21.6694 23.713 22.1254 23.169L23.7324 21.13C23.2284 20.498 22.7404 19.883 22.2534 19.315C21.7504 18.715 22.6854 18.1 23.0534 18.661L24.4444 20.387Z" fill="white"/>
<path d="M12.334 18.947C12.334 18.683 12.558 18.459 12.838 18.459C13.094 18.459 13.31 18.684 13.31 18.947V22.953H15.485C16.268 22.953 16.285 24 15.485 24H12.839C12.559 24 12.335 23.801 12.335 23.513V18.947H12.334Z" fill="white"/>
<path d="M17.001 19.6669C17.185 18.1149 19.527 17.8359 20.631 18.6839C21.175 19.1229 20.599 19.8189 20.119 19.4669C19.527 19.0919 18.184 18.9159 18.016 19.7459C17.8 21.0579 21.278 20.3069 21.222 22.4339C21.166 24.4649 18.224 24.5119 17.12 23.6009C16.855 23.3849 16.864 23.0339 17.008 22.8169C17.216 22.6099 17.447 22.5379 17.72 22.7619C18.375 23.2089 20.063 23.5449 20.182 22.4089C20.079 21.2269 16.753 21.9379 17.001 19.6669Z" fill="white"/>
<path d="M6 27H30.2005V27.797H6V27Z" fill="#E0E0E0"/>
</svg>
