<?xml version="1.0" encoding="UTF-8" standalone="no"?>
<!DOCTYPE svg PUBLIC "-//W3C//DTD SVG 1.1//EN" "http://www.w3.org/Graphics/SVG/1.1/DTD/svg11.dtd">
<svg width="456" height="456" viewBox="0 0 456 456" version="1.1" xmlns="http://www.w3.org/2000/svg" xmlns:xlink="http://www.w3.org/1999/xlink" xml:space="preserve" xmlns:serif="http://www.serif.com/" style="fill-rule:evenodd;clip-rule:evenodd;stroke-linejoin:round;stroke-miterlimit:2;">
<path d="M157.554 159C152.431 186.154 143.209 230.727 139.622 257.368C136.548 230.214 125.789 186.154 120.154 159H104.271L93 295.28H110.419L115.543 201.524C118.617 228.165 127.839 268.639 133.474 295.28H145.77C149.869 272.226 160.116 224.579 163.19 201.524C163.702 228.677 166.264 268.127 168.313 295.28H185.732L173.436 159H157.554Z" style="fill:#ffffff;fill-rule:nonzero;stroke-width:0.838376"/>
<path d="M220.571 159L190.856 295.28H208.275L213.399 268.639H240.552L245.676 295.28H263.607L234.917 159H220.571ZM216.473 254.294C221.084 231.751 225.182 207.672 227.744 185.129C230.306 209.209 233.892 231.239 238.503 254.294H216.473Z" style="fill:#ffffff;fill-rule:nonzero;stroke-width:0.838376"/>
<path d="M314.841 257.88C313.816 272.226 315.353 278.886 301.52 279.911C287.175 278.886 289.224 270.689 288.199 255.319V159H270.268V255.319C270.268 282.985 274.366 295.793 301.52 296.818C327.137 296.305 333.285 285.034 333.285 257.88V159H315.353C314.841 159 314.841 257.88 314.841 257.88Z" style="fill:#ffffff;fill-rule:nonzero;stroke-width:0.838376"/>
<path d="M363 159H344.556V295.281H363V159Z" style="fill:#ffffff;fill-rule:nonzero;stroke-width:0.838376"/>
</svg>
